<svg width="89" height="67" viewBox="0 0 89 67" fill="none" xmlns="http://www.w3.org/2000/svg">
<g clip-path="url(#clip0_84_863)">
<path d="M89 6.42343C85.6721 11.464 82.2542 16.3708 78.7913 21.3222C75.3284 26.229 71.8206 31.1358 68.2678 35.998C64.715 40.8602 61.1622 45.6778 57.5644 50.4953C53.9666 55.3129 50.3239 60.0859 46.6812 64.9035L45.1071 66.9554L43.4881 64.9035L37.8666 57.7217L32.29 50.4953C28.6023 45.6778 24.9146 40.8602 21.2719 35.998C17.6291 31.1358 14.0313 26.229 10.4785 21.3222C6.97069 16.4154 3.41789 11.5087 0 6.42343C4.09247 10.9288 8.095 15.5233 12.0526 20.1178C16.0101 24.8016 19.9227 29.4407 23.7903 34.1245C27.6579 38.8083 31.5255 43.5366 35.3032 48.265L41.0147 55.3575L46.6812 62.4947H43.4881C47.1758 57.7217 50.8186 52.9487 54.5513 48.2204C58.284 43.492 62.0167 38.7636 65.7943 34.0799C69.572 29.3961 73.3946 24.757 77.2623 20.1178C81.1299 15.5679 84.9975 10.9734 89 6.42343Z" fill="#46BFE3"/>
<path d="M80.86 0C78.1617 4.10386 75.3285 8.16311 72.5402 12.1778C69.7069 16.1924 66.8737 20.2071 63.9505 24.1771C61.0723 28.1471 58.1041 32.0726 55.1809 36.0426C52.2577 39.968 49.2446 43.8935 46.2764 47.7743L44.9722 49.4694L43.668 47.7743L34.5387 36.0426L30.0414 30.1098L27.7928 27.1658L25.5892 24.1771C24.1051 22.1698 22.621 20.2071 21.1369 18.1997L16.7297 12.1778C13.8514 8.16311 10.9282 4.10386 8.18494 0C11.5129 3.65779 14.7509 7.4494 17.9889 11.1964L22.8009 16.8615C24.4199 18.735 25.9939 20.6977 27.568 22.5712L29.9515 25.4261L32.29 28.3256L36.9671 34.0799L46.2314 45.7224H43.623C46.6362 41.8415 49.6493 37.9607 52.6624 34.0799C55.7206 30.2437 58.7337 26.3628 61.8368 22.5712C64.8949 18.735 68.043 14.9434 71.191 11.1518C74.429 7.4494 77.5771 3.7024 80.86 0Z" fill="#46BFE3"/>
<path d="M65.4346 0C63.9055 2.27497 62.3764 4.54993 60.8024 6.78029C59.2284 9.01065 57.6094 11.241 55.9904 13.4714C54.3714 15.7017 52.7524 17.8875 51.0884 20.0732L46.1415 26.6305L45.4219 27.5672L44.7024 26.6305L39.5755 20.1178C37.9116 17.9321 36.2026 15.7463 34.5386 13.516C32.8747 11.2856 31.2557 9.05526 29.5917 6.8249C27.9727 4.59454 26.3537 2.31957 24.8246 0.0446072C26.7135 2.09654 28.5124 4.19308 30.3113 6.28961C32.1101 8.38615 33.909 10.5273 35.6629 12.6684C37.4618 14.8096 39.1708 16.9507 40.9247 19.0919L46.0965 25.6045H44.6574L49.6943 19.0919C51.4032 16.9507 53.0672 14.765 54.8211 12.6684C56.5301 10.5273 58.284 8.43076 60.0379 6.28961C61.8368 4.14847 63.5907 2.05193 65.4346 0Z" fill="#46BFE3"/>
</g>
<defs>
<clipPath id="clip0_84_863">
<rect width="89" height="67" fill="white"/>
</clipPath>
</defs>
</svg>
