<svg width="41" height="41" viewBox="0 0 41 41" fill="none" xmlns="http://www.w3.org/2000/svg">
<path fill-rule="evenodd" clip-rule="evenodd" d="M5.07693 18.9999C5.07693 12.6182 5.07693 9.4265 7.06032 7.44481C9.04201 5.46143 12.2337 5.46143 18.6154 5.46143H22C28.3817 5.46143 31.5734 5.46143 33.5551 7.44481C35.5385 9.4265 35.5385 12.6182 35.5385 18.9999V22.3845C35.5385 28.7662 35.5385 31.9579 33.5551 33.9396C31.5734 35.923 28.3817 35.923 22 35.923H18.6154C12.2337 35.923 9.04201 35.923 7.06032 33.9396C5.07693 31.9579 5.07693 28.7662 5.07693 22.3845V18.9999ZM30.4616 13.0768C30.4616 13.7501 30.1941 14.3957 29.7181 14.8718C29.242 15.3478 28.5963 15.6153 27.9231 15.6153C27.2499 15.6153 26.6042 15.3478 26.1281 14.8718C25.6521 14.3957 25.3846 13.7501 25.3846 13.0768C25.3846 12.4036 25.6521 11.7579 26.1281 11.2818C26.6042 10.8058 27.2499 10.5384 27.9231 10.5384C28.5963 10.5384 29.242 10.8058 29.7181 11.2818C30.1941 11.7579 30.4616 12.4036 30.4616 13.0768ZM23.6923 22.3845C23.6923 23.2822 23.3357 24.1431 22.701 24.7778C22.0663 25.4125 21.2054 25.7691 20.3077 25.7691C19.4101 25.7691 18.5492 25.4125 17.9144 24.7778C17.2797 24.1431 16.9231 23.2822 16.9231 22.3845C16.9231 21.4869 17.2797 20.626 17.9144 19.9912C18.5492 19.3565 19.4101 18.9999 20.3077 18.9999C21.2054 18.9999 22.0663 19.3565 22.701 19.9912C23.3357 20.626 23.6923 21.4869 23.6923 22.3845ZM27.0769 22.3845C27.0769 24.1798 26.3638 25.9016 25.0943 27.1711C23.8248 28.4406 22.103 29.1537 20.3077 29.1537C18.5124 29.1537 16.7906 28.4406 15.5211 27.1711C14.2517 25.9016 13.5385 24.1798 13.5385 22.3845C13.5385 20.5892 14.2517 18.8674 15.5211 17.5979C16.7906 16.3285 18.5124 15.6153 20.3077 15.6153C22.103 15.6153 23.8248 16.3285 25.0943 17.5979C26.3638 18.8674 27.0769 20.5892 27.0769 22.3845Z" fill="white"/>
</svg>
